<svg width="1200" height="800" viewBox="0 0 1200 800" fill="none" xmlns="http://www.w3.org/2000/svg">
  <rect width="1200" height="800" rx="32" fill="#0F0F0F"/>
  <rect x="104" y="72" width="420" height="656" rx="36" fill="#1A1A1A" stroke="#2A2A2A"/>
  <rect x="580" y="120" width="500" height="180" rx="28" fill="#1A1A1A" stroke="#2A2A2A"/>
  <rect x="580" y="336" width="500" height="180" rx="28" fill="#1A1A1A" stroke="#2A2A2A"/>
  <rect x="580" y="552" width="500" height="120" rx="28" fill="#1A1A1A" stroke="#2A2A2A"/>
  <rect x="148" y="120" width="332" height="116" rx="24" fill="#202020"/>
  <rect x="148" y="268" width="332" height="192" rx="24" fill="#202020"/>
  <rect x="148" y="492" width="332" height="188" rx="24" fill="#202020"/>
  <circle cx="222" cy="178" r="30" fill="#F97316" fill-opacity=".18"/>
  <circle cx="656" cy="208" r="26" fill="#F97316" fill-opacity=".18"/>
  <rect x="270" y="160" width="128" height="16" rx="8" fill="#E5E5E5"/>
  <rect x="270" y="190" width="156" height="10" rx="5" fill="#A3A3A3"/>
  <rect x="644" y="182" width="170" height="14" rx="7" fill="#E5E5E5"/>
  <rect x="644" y="210" width="240" height="10" rx="5" fill="#A3A3A3"/>
  <rect x="644" y="426" width="196" height="14" rx="7" fill="#E5E5E5"/>
  <rect x="644" y="454" width="260" height="10" rx="5" fill="#A3A3A3"/>
</svg>
